M48
;Layer_Color=9474304
;FILE_FORMAT=2:5
INCH,LZ
;TYPE=PLATED
T1F00S00C0.01181
T2F00S00C0.01968
T3F00S00C0.02362
T4F00S00C0.02756
T5F00S00C0.02800
T6F00S00C0.03150
T7F00S00C0.03543
T8F00S00C0.03898
T9F00S00C0.04400
T10F00S00C0.07874
T11F00S00C0.09055
%
T01
X0121653Y0148425
X0184646Y0151181
X032874Y0185827
X0332677Y0186614
X0328543Y0193826
X0325243Y0196457
X0332874Y0209842
X0320866Y0234252
X0350787Y0229921
X0349004Y0184646
X0335243Y0266929
X031063Y0232283
X0305736Y0232453
X0303937Y0207874
X0307087Y0205512
X0296457Y0169256
X0293743Y0166142
X0232283Y0190945
X0230315Y0198224
X0235243Y0201537
X0213976Y0196669
X0206965Y0217178
X0192913Y0219075
X0195798Y0222136
X0171259Y0220895
X0164932Y0220378
X0162959Y0225926
X0162008Y0203407
X0178765Y0209055
X0181759Y0171457
X0188059Y0250622
X0200984Y0252675
X0211024Y0259842
X0213386Y0264624
X0213385Y0268897
X0234508Y0272579
X0237795Y0269665
X0243307Y0270472
X0246456Y0256299
X0248547Y0244094
X0252362Y0238189
X0255381Y0231102
X0229471Y0229134
X0220276Y0232775
X0213201Y0241712
X0227953Y0279405
X0233071Y0284646
X0250197Y028563
X0279134Y0295472
X0209774Y0291732
X0162008Y0264737
X0161236Y0262275
X0160059Y0255118
X0150665Y0264567
X0154328Y0239359
X0151813Y0224662
X0141142Y0211343
X0147638Y0179567
X0142913Y0161221
X0114646Y0177028
X0113859Y0194095
X0106378Y0205842
X0133366Y0252756
X0116103Y0282799
T02
X0158933Y0266142
X0165057Y0264624
X0179427Y0269665
X020748Y025748
X030524Y0169256
X0155346Y0205306
X0130665Y0274213
X0134793Y0292372
T03
X0248425Y0109449
X0256693Y0109843
X0266142Y0109449
X0276181Y0109843
X0286221Y0109449
X0296457
X030748
X0315748Y0109843
X0325197Y0109449
X0335236Y0109843
X0345276Y0109449
X0355512
X0356693Y0198031
Y0207874
Y0217717
X0367717Y0217323
Y020748
Y0197638
X0366142Y030315
X0356299
X0346457
X0336614
X0326772
X0316929
X0307087
X0297244
X0284646
X0274803
X0264961
X0255118
X0245276
X0235433
X022559
X0215748
X0189002Y0296654
X0179159
X0169316
X0168923Y028563
X0178765
X0188608
T04
X0171285Y020748
X0190576
T05
X0317323Y0204724
Y0215748
X0338189
Y0204724
X0287795Y0220809
X0276772
X0226181Y020995
X0215158
X0184071Y0271654
X0173047
X015315Y0284646
Y0295669
T06
X0120079Y0108661
X0129921Y0127559
X0106299
T07
X0125276Y0238493
X013315
Y0248335
X0125276
T08
X0104827Y0290173
Y030789
X0130417
Y0290173
T09
X0238543Y0148779
X0248543
X0258543
X0268543
X0278543
X0288543
X0298543
X0308543
X0318543
X0328543
X0338543
X0348543
X0358543
X0368543
Y0178779
X0358543
X0348543
X0338543
X0328543
X0318543
X0308543
X0298543
X0288543
X0278543
X0268543
X0258543
X0248543
X0238543
T10
X0140551Y0107874
X0365642Y0118898
X0367216Y024685
X0154331Y0304941
T11
X0114646Y0219713
Y0267115
M30
